<svg width="246" height="60" viewBox="0 0 246 60" fill="none" xmlns="http://www.w3.org/2000/svg">
<path d="M81.5426 39.2586C80.7151 39.2586 79.9651 39.1293 79.2928 38.8707C78.6376 38.5949 78.0687 38.1983 77.586 37.6811C77.1205 37.1467 76.7585 36.5088 76.4999 35.7675C76.2413 35.0089 76.0947 34.1469 76.0603 33.1815C76.043 32.8367 76.0344 32.535 76.0344 32.2764C76.0344 32.0006 76.043 31.6989 76.0603 31.3713C76.0947 30.4403 76.2413 29.6042 76.4999 28.8629C76.7585 28.1216 77.1205 27.4837 77.586 26.9492C78.0515 26.4148 78.6204 26.0097 79.2928 25.7338C79.9651 25.4407 80.7151 25.2942 81.5426 25.2942C82.4046 25.2942 83.1459 25.4407 83.7665 25.7338C84.3872 26.0097 84.913 26.3717 85.344 26.8199V21.2859C85.344 21.0963 85.4043 20.9411 85.525 20.8204C85.6457 20.6997 85.8009 20.6394 85.9905 20.6394H89.1454C89.3178 20.6394 89.4644 20.6997 89.585 20.8204C89.723 20.9411 89.7919 21.0963 89.7919 21.2859V38.3535C89.7919 38.5431 89.723 38.6983 89.585 38.819C89.4644 38.9397 89.3178 39 89.1454 39H86.2232C86.0336 39 85.8784 38.9397 85.7578 38.819C85.6371 38.6983 85.5767 38.5431 85.5767 38.3535V37.526C85.163 38.0259 84.6285 38.4397 83.9734 38.7673C83.3183 39.0948 82.508 39.2586 81.5426 39.2586ZM82.939 35.7934C83.5252 35.7934 83.982 35.6727 84.3096 35.4313C84.6544 35.1727 84.9044 34.8452 85.0595 34.4486C85.2319 34.0521 85.3268 33.6211 85.344 33.1556C85.3612 32.8108 85.3699 32.4833 85.3699 32.173C85.3699 31.8626 85.3612 31.5437 85.344 31.2161C85.3268 30.7851 85.2319 30.3886 85.0595 30.0266C84.8871 29.6473 84.6285 29.3456 84.2837 29.1215C83.9389 28.8801 83.4907 28.7594 82.939 28.7594C82.3701 28.7594 81.9132 28.8801 81.5684 29.1215C81.2409 29.3628 81.0081 29.6904 80.8702 30.1042C80.7323 30.5179 80.6461 30.9748 80.6116 31.4747C80.5599 32.0092 80.5599 32.5436 80.6116 33.0781C80.6461 33.578 80.7323 34.0349 80.8702 34.4486C81.0081 34.8624 81.2409 35.19 81.5684 35.4313C81.9132 35.6727 82.3701 35.7934 82.939 35.7934ZM92.1933 39C92.0036 39 91.8485 38.9397 91.7278 38.819C91.6071 38.6983 91.5468 38.5431 91.5468 38.3535V26.1993C91.5468 26.0097 91.6071 25.8545 91.7278 25.7338C91.8485 25.6131 92.0036 25.5528 92.1933 25.5528H95.2447C95.4171 25.5528 95.5637 25.6131 95.6844 25.7338C95.8223 25.8545 95.8912 26.0097 95.8912 26.1993V38.3535C95.8912 38.5431 95.8223 38.6983 95.6844 38.819C95.5637 38.9397 95.4171 39 95.2447 39H92.1933ZM92.1674 23.6133C91.9778 23.6133 91.8226 23.553 91.7019 23.4323C91.5812 23.3116 91.5209 23.1564 91.5209 22.9668V20.6653C91.5209 20.4756 91.5812 20.3205 91.7019 20.1998C91.8226 20.0619 91.9778 19.9929 92.1674 19.9929H95.2447C95.4344 19.9929 95.5895 20.0619 95.7102 20.1998C95.8481 20.3205 95.9171 20.4756 95.9171 20.6653V22.9668C95.9171 23.1564 95.8481 23.3116 95.7102 23.4323C95.5895 23.553 95.4344 23.6133 95.2447 23.6133H92.1674ZM103.642 39.2586C102.521 39.2586 101.564 39.1379 100.771 38.8966C99.9955 38.638 99.3576 38.3276 98.8577 37.9656C98.3749 37.6036 98.0129 37.2329 97.7715 36.8536C97.5302 36.4571 97.4009 36.1209 97.3836 35.8451C97.3664 35.6554 97.4267 35.5003 97.5647 35.3796C97.7026 35.2417 97.8491 35.1727 98.0043 35.1727H100.952C101.004 35.1727 101.047 35.1813 101.082 35.1986C101.116 35.2158 101.168 35.2503 101.237 35.302C101.461 35.4227 101.685 35.5779 101.909 35.7675C102.133 35.9399 102.392 36.0951 102.685 36.233C102.978 36.3709 103.331 36.4399 103.745 36.4399C104.228 36.4399 104.633 36.345 104.961 36.1554C105.288 35.9658 105.452 35.6813 105.452 35.302C105.452 35.0262 105.374 34.8021 105.219 34.6297C105.064 34.44 104.745 34.259 104.262 34.0866C103.797 33.9142 103.09 33.7418 102.142 33.5694C101.245 33.3625 100.461 33.0953 99.7886 32.7677C99.1163 32.4229 98.5991 31.9833 98.237 31.4489C97.875 30.8972 97.694 30.2335 97.694 29.4577C97.694 28.7681 97.9181 28.1043 98.3663 27.4664C98.8146 26.8286 99.4697 26.3114 100.332 25.9148C101.194 25.5011 102.254 25.2942 103.512 25.2942C104.512 25.2942 105.374 25.4149 106.098 25.6562C106.84 25.8804 107.46 26.1734 107.96 26.5355C108.478 26.8975 108.865 27.2682 109.124 27.6475C109.383 28.0267 109.521 28.3715 109.538 28.6819C109.555 28.8543 109.503 29.0094 109.383 29.1473C109.262 29.268 109.124 29.3284 108.969 29.3284H106.279C106.211 29.3284 106.142 29.3197 106.073 29.3025C106.004 29.268 105.943 29.2335 105.892 29.1991C105.685 29.0956 105.478 28.9577 105.271 28.7853C105.064 28.6129 104.823 28.4577 104.547 28.3198C104.271 28.1819 103.926 28.1129 103.512 28.1129C103.047 28.1129 102.685 28.2164 102.426 28.4233C102.168 28.6301 102.038 28.8974 102.038 29.2249C102.038 29.449 102.107 29.6559 102.245 29.8456C102.4 30.0352 102.702 30.2076 103.15 30.3628C103.616 30.5179 104.331 30.6903 105.297 30.88C106.486 31.0696 107.435 31.3799 108.141 31.8109C108.848 32.2247 109.348 32.716 109.641 33.2849C109.934 33.8366 110.081 34.4228 110.081 35.0434C110.081 35.8709 109.831 36.6036 109.331 37.2415C108.848 37.8794 108.124 38.3794 107.159 38.7414C106.193 39.0862 105.021 39.2586 103.642 39.2586ZM111.755 43.9134C111.565 43.9134 111.41 43.8531 111.289 43.7324C111.169 43.6117 111.108 43.4565 111.108 43.2669V26.1993C111.108 26.0097 111.169 25.8545 111.289 25.7338C111.41 25.6131 111.565 25.5528 111.755 25.5528H114.677C114.85 25.5528 114.996 25.6131 115.117 25.7338C115.255 25.8545 115.324 26.0097 115.324 26.1993V27.1561C115.72 26.6217 116.246 26.1821 116.901 25.8373C117.556 25.4752 118.366 25.2942 119.332 25.2942C120.194 25.2942 120.952 25.4321 121.608 25.708C122.263 25.9666 122.823 26.3545 123.288 26.8717C123.754 27.3889 124.116 28.0181 124.375 28.7594C124.65 29.5008 124.806 30.3541 124.84 31.3196C124.857 31.6644 124.866 31.9833 124.866 32.2764C124.866 32.5695 124.857 32.8884 124.84 33.2332C124.806 34.1642 124.659 35.0003 124.4 35.7416C124.142 36.483 123.78 37.1122 123.314 37.6294C122.849 38.1466 122.28 38.5518 121.608 38.8448C120.952 39.1207 120.194 39.2586 119.332 39.2586C118.487 39.2586 117.746 39.1121 117.108 38.819C116.487 38.5087 115.97 38.0777 115.556 37.526V43.2669C115.556 43.4565 115.496 43.6117 115.375 43.7324C115.255 43.8531 115.099 43.9134 114.91 43.9134H111.755ZM117.935 35.7934C118.522 35.7934 118.978 35.6727 119.306 35.4313C119.634 35.19 119.866 34.8624 120.004 34.4486C120.159 34.0349 120.254 33.578 120.289 33.0781C120.323 32.5436 120.323 32.0092 120.289 31.4747C120.254 30.9748 120.159 30.5179 120.004 30.1042C119.866 29.6904 119.634 29.3628 119.306 29.1215C118.978 28.8801 118.522 28.7594 117.935 28.7594C117.367 28.7594 116.91 28.8887 116.565 29.1473C116.22 29.3887 115.97 29.7076 115.815 30.1042C115.66 30.5007 115.574 30.9317 115.556 31.3972C115.539 31.7247 115.53 32.0437 115.53 32.354C115.53 32.6643 115.539 32.9919 115.556 33.3367C115.574 33.7677 115.668 34.1728 115.841 34.5521C116.013 34.9141 116.272 35.2158 116.617 35.4572C116.961 35.6813 117.401 35.7934 117.935 35.7934ZM130.164 39.2586C129.233 39.2586 128.397 39.0862 127.655 38.7414C126.931 38.3794 126.354 37.8966 125.923 37.2932C125.492 36.6898 125.276 36.0089 125.276 35.2503C125.276 34.0263 125.776 33.0608 126.776 32.354C127.776 31.6299 129.103 31.1386 130.758 30.88L133.991 30.3886V30.0266C133.991 29.4059 133.862 28.9318 133.603 28.6043C133.344 28.2767 132.87 28.1129 132.181 28.1129C131.698 28.1129 131.301 28.2078 130.991 28.3974C130.698 28.587 130.465 28.8456 130.293 29.1732C130.138 29.3973 129.922 29.5094 129.646 29.5094H126.75C126.56 29.5094 126.414 29.4577 126.31 29.3542C126.207 29.2335 126.164 29.0956 126.181 28.9405C126.181 28.6301 126.293 28.2767 126.517 27.8802C126.759 27.4664 127.121 27.0613 127.603 26.6648C128.086 26.2683 128.707 25.9407 129.465 25.6821C130.224 25.4235 131.138 25.2942 132.207 25.2942C133.327 25.2942 134.284 25.4235 135.077 25.6821C135.87 25.9407 136.508 26.3027 136.991 26.7682C137.491 27.2337 137.861 27.7854 138.103 28.4233C138.344 29.0439 138.465 29.7335 138.465 30.4921V38.3535C138.465 38.5431 138.396 38.6983 138.258 38.819C138.137 38.9397 137.991 39 137.818 39H134.818C134.629 39 134.474 38.9397 134.353 38.819C134.232 38.6983 134.172 38.5431 134.172 38.3535V37.4484C133.948 37.776 133.646 38.0777 133.267 38.3535C132.888 38.6293 132.439 38.8448 131.922 39C131.422 39.1724 130.836 39.2586 130.164 39.2586ZM131.379 36.3106C131.879 36.3106 132.327 36.2071 132.724 36.0002C133.138 35.7761 133.456 35.4399 133.681 34.9917C133.922 34.5262 134.043 33.9487 134.043 33.2591V32.897L131.845 33.2849C131.034 33.4229 130.439 33.6384 130.06 33.9314C129.698 34.2073 129.517 34.5348 129.517 34.9141C129.517 35.2072 129.603 35.4572 129.776 35.6641C129.948 35.8709 130.172 36.0347 130.448 36.1554C130.724 36.2588 131.034 36.3106 131.379 36.3106ZM146.868 39C145.764 39 144.807 38.8276 143.997 38.4828C143.204 38.1208 142.592 37.5691 142.161 36.8278C141.73 36.0692 141.515 35.0951 141.515 33.9056V28.9405H139.497C139.308 28.9405 139.144 28.8801 139.006 28.7594C138.885 28.6388 138.825 28.4836 138.825 28.294V26.1993C138.825 26.0097 138.885 25.8545 139.006 25.7338C139.144 25.6131 139.308 25.5528 139.497 25.5528H141.515V21.2859C141.515 21.0963 141.575 20.9411 141.696 20.8204C141.833 20.6997 141.989 20.6394 142.161 20.6394H145.161C145.35 20.6394 145.506 20.6997 145.626 20.8204C145.747 20.9411 145.807 21.0963 145.807 21.2859V25.5528H149.04C149.229 25.5528 149.385 25.6131 149.505 25.7338C149.626 25.8545 149.686 26.0097 149.686 26.1993V28.294C149.686 28.4836 149.626 28.6388 149.505 28.7594C149.385 28.8801 149.229 28.9405 149.04 28.9405H145.807V33.5435C145.807 34.1297 145.919 34.5952 146.143 34.94C146.368 35.2848 146.747 35.4572 147.281 35.4572H149.273C149.462 35.4572 149.617 35.5175 149.738 35.6382C149.859 35.7589 149.919 35.914 149.919 36.1037V38.3535C149.919 38.5431 149.859 38.6983 149.738 38.819C149.617 38.9397 149.462 39 149.273 39H146.868ZM156.948 39.2586C155.672 39.2586 154.543 39.0259 153.56 38.5604C152.577 38.0949 151.793 37.4225 151.207 36.5433C150.638 35.6468 150.328 34.5779 150.276 33.3367C150.259 33.0608 150.25 32.716 150.25 32.3023C150.25 31.8713 150.259 31.5178 150.276 31.242C150.328 29.9835 150.638 28.9146 151.207 28.0354C151.776 27.1389 152.552 26.4579 153.534 25.9924C154.534 25.5269 155.672 25.2942 156.948 25.2942C158.137 25.2942 159.154 25.4666 159.999 25.8114C160.844 26.139 161.534 26.5527 162.068 27.0527C162.602 27.5526 162.999 28.0698 163.258 28.6043C163.533 29.1215 163.68 29.5783 163.697 29.9749C163.714 30.1473 163.654 30.3024 163.516 30.4403C163.378 30.561 163.223 30.6214 163.051 30.6214H159.766C159.577 30.6214 159.43 30.5783 159.327 30.4921C159.223 30.4059 159.129 30.2766 159.042 30.1042C158.835 29.5697 158.568 29.1904 158.241 28.9663C157.93 28.7422 157.525 28.6301 157.025 28.6301C156.336 28.6301 155.801 28.8543 155.422 29.3025C155.06 29.7507 154.862 30.4403 154.827 31.3713C154.81 32.0609 154.81 32.6729 154.827 33.2074C154.862 34.1556 155.06 34.8452 155.422 35.2762C155.801 35.7072 156.336 35.9227 157.025 35.9227C157.56 35.9227 157.982 35.8106 158.292 35.5865C158.603 35.3624 158.853 34.9831 159.042 34.4486C159.129 34.2762 159.223 34.1469 159.327 34.0607C159.43 33.9745 159.577 33.9314 159.766 33.9314H163.051C163.223 33.9314 163.378 34.0004 163.516 34.1383C163.654 34.259 163.714 34.4055 163.697 34.5779C163.68 34.871 163.594 35.2158 163.439 35.6123C163.283 35.9916 163.042 36.3968 162.714 36.8278C162.387 37.2588 161.956 37.6639 161.421 38.0432C160.904 38.4052 160.275 38.6983 159.534 38.9224C158.792 39.1465 157.93 39.2586 156.948 39.2586ZM165.374 39C165.184 39 165.029 38.9397 164.909 38.819C164.788 38.6983 164.728 38.5431 164.728 38.3535V21.2859C164.728 21.0963 164.788 20.9411 164.909 20.8204C165.029 20.6997 165.184 20.6394 165.374 20.6394H168.684C168.874 20.6394 169.029 20.6997 169.15 20.8204C169.27 20.9411 169.331 21.0963 169.331 21.2859V27.0527C169.796 26.5182 170.365 26.0959 171.037 25.7855C171.727 25.458 172.52 25.2942 173.416 25.2942C174.416 25.2942 175.304 25.5183 176.08 25.9666C176.873 26.4148 177.494 27.0785 177.942 27.9578C178.39 28.8198 178.614 29.88 178.614 31.1386V38.3535C178.614 38.5431 178.554 38.6983 178.433 38.819C178.313 38.9397 178.157 39 177.968 39H174.632C174.46 39 174.304 38.9397 174.166 38.819C174.046 38.6983 173.985 38.5431 173.985 38.3535V31.2937C173.985 30.4834 173.787 29.8628 173.391 29.4318C173.011 28.9836 172.442 28.7594 171.684 28.7594C170.977 28.7594 170.408 28.9836 169.977 29.4318C169.546 29.8628 169.331 30.4834 169.331 31.2937V38.3535C169.331 38.5431 169.27 38.6983 169.15 38.819C169.029 38.9397 168.874 39 168.684 39H165.374ZM184.288 39.2586C183.357 39.2586 182.521 39.0862 181.779 38.7414C181.055 38.3794 180.478 37.8966 180.047 37.2932C179.616 36.6898 179.4 36.0089 179.4 35.2503C179.4 34.0263 179.9 33.0608 180.9 32.354C181.9 31.6299 183.228 31.1386 184.883 30.88L188.115 30.3886V30.0266C188.115 29.4059 187.986 28.9318 187.727 28.6043C187.469 28.2767 186.994 28.1129 186.305 28.1129C185.822 28.1129 185.426 28.2078 185.115 28.3974C184.822 28.587 184.589 28.8456 184.417 29.1732C184.262 29.3973 184.046 29.5094 183.771 29.5094H180.874C180.685 29.5094 180.538 29.4577 180.435 29.3542C180.331 29.2335 180.288 29.0956 180.305 28.9405C180.305 28.6301 180.417 28.2767 180.642 27.8802C180.883 27.4664 181.245 27.0613 181.728 26.6648C182.21 26.2683 182.831 25.9407 183.59 25.6821C184.348 25.4235 185.262 25.2942 186.331 25.2942C187.451 25.2942 188.408 25.4235 189.201 25.6821C189.994 25.9407 190.632 26.3027 191.115 26.7682C191.615 27.2337 191.985 27.7854 192.227 28.4233C192.468 29.0439 192.589 29.7335 192.589 30.4921V38.3535C192.589 38.5431 192.52 38.6983 192.382 38.819C192.261 38.9397 192.115 39 191.942 39H188.943C188.753 39 188.598 38.9397 188.477 38.819C188.356 38.6983 188.296 38.5431 188.296 38.3535V37.4484C188.072 37.776 187.77 38.0777 187.391 38.3535C187.012 38.6293 186.563 38.8448 186.046 39C185.546 39.1724 184.96 39.2586 184.288 39.2586ZM185.503 36.3106C186.003 36.3106 186.451 36.2071 186.848 36.0002C187.262 35.7761 187.581 35.4399 187.805 34.9917C188.046 34.5262 188.167 33.9487 188.167 33.2591V32.897L185.969 33.2849C185.158 33.4229 184.564 33.6384 184.184 33.9314C183.822 34.2073 183.641 34.5348 183.641 34.9141C183.641 35.2072 183.727 35.4572 183.9 35.6641C184.072 35.8709 184.296 36.0347 184.572 36.1554C184.848 36.2588 185.158 36.3106 185.503 36.3106ZM202.437 39.2586C201.472 39.2586 200.662 39.0948 200.007 38.7673C199.369 38.4397 198.843 38.0259 198.429 37.526V38.3535C198.429 38.5431 198.36 38.6983 198.222 38.819C198.102 38.9397 197.955 39 197.783 39H194.86C194.671 39 194.516 38.9397 194.395 38.819C194.274 38.6983 194.214 38.5431 194.214 38.3535V21.2859C194.214 21.0963 194.274 20.9411 194.395 20.8204C194.516 20.6997 194.671 20.6394 194.86 20.6394H198.015C198.205 20.6394 198.36 20.6997 198.481 20.8204C198.602 20.9411 198.662 21.0963 198.662 21.2859V26.8199C199.076 26.3717 199.593 26.0097 200.214 25.7338C200.851 25.4407 201.593 25.2942 202.437 25.2942C203.299 25.2942 204.058 25.4407 204.713 25.7338C205.386 26.0097 205.954 26.4148 206.42 26.9492C206.885 27.4837 207.247 28.1216 207.506 28.8629C207.765 29.6042 207.911 30.4403 207.946 31.3713C207.963 31.6989 207.972 32.0006 207.972 32.2764C207.972 32.535 207.963 32.8367 207.946 33.1815C207.911 34.1469 207.756 35.0089 207.48 35.7675C207.222 36.5088 206.86 37.1467 206.394 37.6811C205.929 38.1983 205.368 38.5949 204.713 38.8707C204.058 39.1293 203.299 39.2586 202.437 39.2586ZM201.041 35.7934C201.627 35.7934 202.084 35.6727 202.412 35.4313C202.739 35.19 202.972 34.8624 203.11 34.4486C203.265 34.0349 203.36 33.578 203.394 33.0781C203.429 32.5436 203.429 32.0092 203.394 31.4747C203.36 30.9748 203.265 30.5179 203.11 30.1042C202.972 29.6904 202.739 29.3628 202.412 29.1215C202.084 28.8801 201.627 28.7594 201.041 28.7594C200.507 28.7594 200.067 28.8801 199.722 29.1215C199.377 29.3456 199.119 29.6473 198.946 30.0266C198.774 30.3886 198.679 30.7851 198.662 31.2161C198.645 31.5437 198.636 31.8626 198.636 32.173C198.636 32.4833 198.645 32.8108 198.662 33.1556C198.679 33.6211 198.765 34.0521 198.921 34.4486C199.076 34.8452 199.326 35.1727 199.67 35.4313C200.015 35.6727 200.472 35.7934 201.041 35.7934ZM209.882 39C209.692 39 209.537 38.9397 209.416 38.819C209.295 38.6983 209.235 38.5431 209.235 38.3535V21.2859C209.235 21.0963 209.295 20.9411 209.416 20.8204C209.537 20.6997 209.692 20.6394 209.882 20.6394H212.933C213.123 20.6394 213.278 20.6997 213.398 20.8204C213.519 20.9411 213.579 21.0963 213.579 21.2859V38.3535C213.579 38.5431 213.519 38.6983 213.398 38.819C213.278 38.9397 213.123 39 212.933 39H209.882ZM221.548 39.2586C219.513 39.2586 217.893 38.7069 216.686 37.6036C215.479 36.5002 214.85 34.8624 214.798 32.6902C214.798 32.5695 214.798 32.4143 214.798 32.2247C214.798 32.035 214.798 31.8885 214.798 31.7851C214.85 30.4231 215.152 29.2594 215.703 28.294C216.272 27.3113 217.048 26.57 218.031 26.07C219.031 25.5528 220.194 25.2942 221.522 25.2942C223.039 25.2942 224.289 25.5959 225.272 26.1993C226.272 26.8027 227.022 27.6216 227.521 28.656C228.021 29.6904 228.271 30.8713 228.271 32.1988V32.8195C228.271 33.0091 228.202 33.1643 228.065 33.2849C227.944 33.4056 227.797 33.466 227.625 33.466H219.35C219.35 33.4832 219.35 33.5091 219.35 33.5435C219.35 33.578 219.35 33.6125 219.35 33.647C219.367 34.1469 219.453 34.6038 219.608 35.0176C219.763 35.4313 220.005 35.7589 220.332 36.0002C220.66 36.2416 221.056 36.3623 221.522 36.3623C221.867 36.3623 222.151 36.3106 222.375 36.2071C222.617 36.0864 222.815 35.9571 222.97 35.8192C223.125 35.6641 223.246 35.5348 223.332 35.4313C223.487 35.2589 223.608 35.1555 223.694 35.121C223.798 35.0693 223.953 35.0434 224.16 35.0434H227.366C227.539 35.0434 227.677 35.0951 227.78 35.1986C227.901 35.2848 227.952 35.4141 227.935 35.5865C227.918 35.8796 227.771 36.233 227.496 36.6467C227.22 37.0605 226.815 37.4743 226.28 37.888C225.763 38.2845 225.108 38.6121 224.315 38.8707C223.522 39.1293 222.599 39.2586 221.548 39.2586ZM219.35 30.9058H223.72V30.8541C223.72 30.3024 223.634 29.8197 223.461 29.4059C223.306 28.9922 223.056 28.6732 222.712 28.4491C222.384 28.225 221.987 28.1129 221.522 28.1129C221.056 28.1129 220.66 28.225 220.332 28.4491C220.022 28.6732 219.781 28.9922 219.608 29.4059C219.436 29.8197 219.35 30.3024 219.35 30.8541V30.9058Z" fill="black"/>
<rect x="16.2846" y="30.0886" width="28.0071" height="28.0071" transform="rotate(-45 16.2846 30.0886)" stroke="#34A0A4" stroke-width="4.64508"/>
<rect x="25.196" y="30.0886" width="28.0071" height="28.0071" transform="rotate(-45 25.196 30.0886)" stroke="#52B69A" stroke-width="4.64508"/>
<rect width="13.6856" height="13.6856" transform="matrix(-0.707107 0.707107 0.707107 0.707107 40.5886 20.4114)" fill="url(#paint0_linear_107_50)"/>
<defs>
<linearGradient id="paint0_linear_107_50" x1="0.887611" y1="13.5424" x2="13.5424" y2="0.143211" gradientUnits="userSpaceOnUse">
<stop stop-color="#99D98C"/>
<stop offset="1" stop-color="#34A0A4"/>
</linearGradient>
</defs>
</svg>
